<?xml version="1.0" standalone="no"?>
<!DOCTYPE svg PUBLIC "-//W3C//DTD SVG 20010904//EN"
 "http://www.w3.org/TR/2001/REC-SVG-20010904/DTD/svg10.dtd">
<svg version="1.0" xmlns="http://www.w3.org/2000/svg"
 width="6938.000000pt" height="5627.000000pt" viewBox="0 0 6938.000000 5627.000000"
 preserveAspectRatio="xMidYMid meet">
<metadata>
Created by potrace 1.16, written by Peter Selinger 2001-2019
</metadata>
<g transform="translate(0.000000,5627.000000) scale(0.100000,-0.100000)"
fill="#000000" stroke="none">
<path d="M7680 35710 c0 -5285 2 -9610 5 -9610 10 0 650 539 2105 1771 1915
1621 2770 2316 4005 3254 1008 767 1485 1494 1565 2385 21 241 11 482 -35 795
-46 316 -56 620 -35 1075 5 113 12 298 16 412 l7 207 54 16 c30 9 59 15 63 13
5 -2 2399 -1999 5319 -4438 2921 -2439 5314 -4436 5319 -4438 5 -1 2409 1984
5343 4411 l5334 4414 5 -8856 c5 -8540 6 -8858 23 -8916 45 -145 111 -257 219
-371 40 -42 408 -358 818 -703 1880 -1579 5416 -4571 5710 -4830 90 -80 311
-278 489 -438 179 -161 328 -293 333 -293 4 0 8 1031 8 2290 0 1520 3 2290 10
2290 7 0 10 1753 10 5240 0 3487 -3 5240 -10 5240 -7 0 -10 743 -10 2210 0
1467 3 2210 10 2210 7 0 10 1658 10 4955 0 3297 -3 4955 -10 4955 -16 0 -14
4347 3 4354 6 3 -1648 4 -3678 1 -4123 -5 -3739 3 -3887 -78 -85 -46 -185
-129 -2398 -1996 -3372 -2845 -3971 -3348 -6704 -5621 -902 -749 -1647 -1365
-1655 -1367 -9 -2 -68 34 -131 80 -63 45 -1465 1216 -3115 2603 -3698 3106
-5159 4332 -7141 5990 -299 249 -379 298 -592 356 -74 20 -109 22 -777 29
-385 4 -2029 7 -3652 8 l-2953 1 0 -9610z"/>
</g>
</svg>
