<svg xmlns="http://www.w3.org/2000/svg" viewBox="0 0 2000 2000"><defs><style>.cls-1{fill:#0c273a;}.cls-2{fill:#00d3e6;}</style></defs><title>logo mihir</title><g id="Layer_1" data-name="Layer 1"><path class="cls-1" d="M1065.94,826.65l-256.47,212.2L554.14,825.61l-3.1.88c0,13.53-1.82,27.27.36,40.55,5.23,31.73-7.78,54.66-36.56,76.31-50.8,38.21-97.72,80-146.71,120.73v-461H419.8c40.23,0,80.46-.17,120.68.23a24.57,24.57,0,0,1,14,5.1Q678.55,712.12,802.14,816.22c2.08,1.74,4.48,3.22,6.58,4.72,40-33.31,79.67-66.16,119.08-99.22,45.55-38.22,90.85-76.66,136.39-114.89,2.15-1.8,5.59-3.57,8.43-3.59,58.35-.2,116.7-.15,176-.15v810.3c-10.22-9.13-18.22-16.58-26.62-23.7q-73.45-62.25-147.19-124.28c-6.28-5.26-9-10.49-9-18q.38-203.49.17-407Z"/><path class="cls-2" d="M625.13,976.41,755,1084.13,364.85,1406.08l2.22,3v-7.15c.05-66.71,0-133.42.4-200.12,0-4.5,2.25-10.19,5.9-13.29Q497.77,1082.88,622.8,977.8A12.76,12.76,0,0,1,625.13,976.41Z"/><path class="cls-2" d="M1511.93,978.71v-2.38c94.15-31,151.17-98.85,151.17-176.27,0-63.13-27.85-110.77-74.26-141.73-55.69-40.5-129.95-58.36-245.31-58.36-32.65,0-65.09,1.16-95.47,3.18V707.64c4.51-.86,133.52-13.27,192.36,36.51,29,24.56,61.93,128.92,4,174.68-53.1,41.93-196.34,26.53-196.34,26.53v106.1c0-.35,250.21-7,251.92,114.6,1.65,116.71-229.38,140.36-251.92,136.79v111.91c19.63.67,40.87,1.06,63.65,1.06,145.86,0,246.63-23.82,309-75,45.08-39.31,75.58-91.71,75.58-160.79C1696.25,1060.89,1596.8,997.77,1511.93,978.71Z"/></g></svg>